<?xml version="1.0" encoding="UTF-8" standalone="no"?><!DOCTYPE svg PUBLIC "-//W3C//DTD SVG 1.1//EN" "http://www.w3.org/Graphics/SVG/1.1/DTD/svg11.dtd"><svg width="100%" height="100%" viewBox="0 0 40 40" version="1.1" xmlns="http://www.w3.org/2000/svg" xmlns:xlink="http://www.w3.org/1999/xlink" xml:space="preserve" xmlns:serif="http://www.serif.com/" style="fill-rule:evenodd;clip-rule:evenodd;stroke-linejoin:round;stroke-miterlimit:2;"><path d="M16.818,39.703l-0.118,0.097c-9.5,-1.7 -16.7,-9.9 -16.7,-19.8c-0,-11 9,-20 20,-20c11,-0 20,9 20,20c0,9.9 -7.2,18.1 -16.7,19.8l-0.083,-0.068c0.061,-0.01 0.122,-0.021 0.183,-0.032l0,-14.1l4.4,-0l0.9,-5.6l-5.3,-0l-0,-3.9c-0,-1.6 0.6,-2.8 3,-2.8l2.6,-0l-0,-5.1c-1.4,-0.2 -3,-0.4 -4.4,-0.4c-4.6,-0 -7.8,2.8 -7.8,7.8l0,4.4l-5,-0l0,5.6l5,-0l0,14.1c0.006,0.001 0.012,0.002 0.018,0.003Z" style="fill:#fff;fill-rule:nonzero;"/></svg>