<?xml version="1.0" encoding="UTF-8" standalone="no"?>
<!DOCTYPE svg PUBLIC "-//W3C//DTD SVG 1.1//EN" "http://www.w3.org/Graphics/SVG/1.1/DTD/svg11.dtd">
<svg width="100%" height="100%" viewBox="0 0 256 256" version="1.1" xmlns="http://www.w3.org/2000/svg" xmlns:xlink="http://www.w3.org/1999/xlink" xml:space="preserve" xmlns:serif="http://www.serif.com/" style="fill-rule:evenodd;clip-rule:evenodd;stroke-linejoin:round;stroke-miterlimit:2;">
    <g transform="matrix(2.81,0,0,2.81,1.40659,1.40659)">
        <path d="M55.229,78.816L55.229,84.902C55.229,85.508 54.736,86 54.131,86L18.004,86C17.398,86 16.906,85.507 16.906,84.902L16.906,4.731C16.906,4.328 17.234,4 17.637,4L23.326,4C23.705,6.345 25.378,8.126 27.37,8.126L44.766,8.126C46.758,8.126 48.43,6.345 48.81,4L54.131,4C54.737,4 55.229,4.493 55.229,5.098L55.229,23.907C56.591,23.988 57.927,24.165 59.229,24.438L59.229,5.098C59.229,2.283 56.946,0 54.131,0L17.637,0C15.024,0 12.906,2.118 12.906,4.731L12.906,84.902C12.906,87.718 15.189,90 18.004,90L54.13,90C56.946,90 59.228,87.717 59.228,84.902L59.228,78.285C57.927,78.557 56.591,78.735 55.229,78.816ZM41.948,4.25C42.362,4.25 42.698,4.586 42.698,5C42.698,5.414 42.362,5.75 41.948,5.75C41.534,5.75 41.198,5.414 41.198,5C41.198,4.586 41.534,4.25 41.948,4.25ZM29.437,4.25L38.903,4.25C39.317,4.25 39.653,4.586 39.653,5C39.653,5.414 39.317,5.75 38.903,5.75L29.437,5.75C29.023,5.75 28.687,5.414 28.687,5C28.687,4.586 29.023,4.25 29.437,4.25Z" style="fill:white;fill-rule:nonzero;"/>
        <path d="M51.665,27.93C40.173,28.843 30.909,38.229 30.133,49.732C29.694,56.232 31.902,62.212 35.783,66.709C36.088,67.063 36.185,67.549 36.018,67.986L32.366,77.593C32.27,77.846 32.54,78.081 32.778,77.952L42.447,72.666C42.803,72.472 43.226,72.466 43.593,72.639C47.036,74.26 50.933,75.076 55.046,74.826C66.646,74.12 76.142,64.79 77.024,53.201C78.123,38.742 66.133,26.781 51.665,27.93ZM43.195,56.895C40.593,57.294 38.384,55.084 38.783,52.483C39.031,50.862 40.357,49.537 41.978,49.289C44.58,48.891 46.788,51.099 46.39,53.701C46.141,55.322 44.816,56.647 43.195,56.895ZM54.195,56.895C51.593,57.294 49.384,55.084 49.783,52.483C50.031,50.862 51.357,49.537 52.978,49.289C55.58,48.891 57.788,51.099 57.39,53.701C57.141,55.322 55.816,56.647 54.195,56.895ZM65.195,56.895C62.593,57.294 60.384,55.084 60.783,52.483C61.031,50.862 62.357,49.537 63.978,49.289C66.58,48.891 68.788,51.099 68.39,53.701C68.141,55.322 66.816,56.647 65.195,56.895Z" style="fill:white;fill-rule:nonzero;"/>
    </g>
</svg>
